<svg width="411" height="406" viewBox="0 0 411 406" fill="none" xmlns="http://www.w3.org/2000/svg">
<g clip-path="url(#clip0_1624_14428)">
<path d="M0 0H411V406H0V0Z" fill="#0465AA"/>
<path d="M198.078 38.7251C289.056 34.3066 366.393 104.471 370.823 195.449C375.253 286.428 305.096 363.773 214.119 368.213C123.127 372.653 45.7654 302.483 41.3354 211.49C36.9054 120.497 107.084 43.1446 198.078 38.7251Z" fill="#FEFEFE"/>
<path d="M266.561 337.916C204.174 365.996 130.665 347.451 89.0631 293.136C47.4614 238.823 48.7049 163.021 92.0659 110.101C135.427 57.181 209.504 41.0573 270.936 71.1678C322.229 96.3068 354.376 148.818 353.439 205.931C352.501 263.043 318.649 314.473 266.561 337.916Z" fill="#0465AA"/>
<path d="M270.937 71.168C322.23 96.307 354.377 148.818 353.44 205.931C352.502 263.043 318.65 314.473 266.562 337.916C263.377 337.638 260.177 337.826 256.79 337.506C244.524 336.313 232.642 332.568 221.906 326.516C202.421 315.478 187.315 298.086 179.115 277.246C177.491 273.113 176.361 269.011 175.184 264.733L238.771 264.781C238.817 258.578 238.828 252.373 238.804 246.169C228.502 246.482 217.907 246.033 207.574 246.306C210.884 242.727 214.063 239.186 217.407 235.635C226.596 225.874 236.2 215.808 237.003 201.64C237.437 193.979 235.052 185.465 229.795 179.751C222.997 172.363 214.568 170.676 205.094 170.133L205.924 169.562C206.062 168.677 204.027 160.493 203.775 158.189C201.338 135.879 206.372 115.464 220.711 97.9005C233.287 82.7312 251.332 73.127 270.937 71.168Z" fill="#E1E2E2"/>
<path d="M273.332 107.512C274.134 108.019 278.897 112.261 279.992 113.203L297.444 128.254C297.494 123.984 297.504 119.715 297.477 115.445C302.639 115.531 307.802 115.555 312.964 115.518C312.799 123.248 312.579 134.475 313.022 141.956C319.487 146.839 328.617 155.446 334.914 161.007C330.494 160.878 316.992 161.591 313.832 160.628C311.254 159.843 284.707 135.961 280.584 132.301C278.222 130.194 275.832 128.114 273.419 126.064C267.414 130.979 235.956 159.718 233.252 160.612C230.435 161.545 216.041 160.908 211.758 161.075L273.332 107.512Z" fill="#CB2928"/>
<path d="M267.777 171.774C271.709 171.534 276.774 171.648 280.779 171.65L280.784 264.784C273.822 264.729 266.862 264.727 259.899 264.774L259.832 260.812L259.852 194.407C254.904 195.214 249.756 196.394 244.79 196.83C245.073 194.248 244.765 185.072 244.758 181.883C249.906 180.479 255.177 179.076 259.907 176.533C262.442 175.17 264.904 173.151 267.507 171.902L267.777 171.774Z" fill="#0465AA"/>
<path d="M314.376 171.76C317.081 171.474 324.418 171.66 327.521 171.673L327.568 264.802C320.616 264.714 313.661 264.702 306.708 264.764L306.671 260.762L306.666 194.344C301.983 195.362 296.243 196.308 291.516 197.012L291.533 181.808C301.163 179.854 306.288 176.76 314.376 171.76Z" fill="#0465AA"/>
<path d="M174.552 264.819C159.361 270.196 145.465 271.931 129.591 267.851C112.451 263.391 97.7903 252.296 88.8421 237.013C79.8168 221.675 77.6683 202.985 82.1343 185.838C86.5711 169.188 97.4029 154.963 112.273 146.258C128.549 136.939 147.84 134.404 165.971 139.203C183.347 143.803 196.909 154.057 205.922 169.562L205.092 170.133C196.53 171.092 189.286 172.167 182.726 178.609C176.265 184.956 174.02 193.483 173.965 202.314L194.226 202.262C194.821 195.834 196.299 189.334 204.214 188.899C216.13 188.244 219.284 200.766 213.707 209.649C207.782 219.085 199.457 226.814 191.949 234.992C186.03 241.526 180.116 247.82 174.276 254.281C174.281 257.954 174.303 261.141 174.552 264.819Z" fill="#FEFEFE"/>
<path d="M143.652 163.599C144.831 163.432 147.594 163.405 148.839 163.448C160.174 163.837 168.469 167.578 176.191 175.68C167.174 187.071 167.201 195.453 167.237 209C173.515 208.953 180.803 209.101 186.983 208.756C186.167 213.341 185.734 216.326 183.632 220.677C178.304 231.705 170.676 237.902 159.452 241.97C150.285 244.64 138.206 243.804 129.722 239.432C94.9413 221.509 103.318 167.686 143.652 163.599Z" fill="#0465AA"/>
</g>
<defs>
<clipPath id="clip0_1624_14428">
<rect width="411" height="406" fill="white"/>
</clipPath>
</defs>
</svg>
